# xmcd
#
# Track frame offsets: 
#        150
#        26463
#        48356
#        68325
#        89092
#        104125
#        124187
#        145031
#        169791
#        196376
#
# Disc length: 2953 seconds
#
# Revision: 0
# Processed by: cddbd v1.5.2PL0 Copyright (c) Steve Scherf et al.
# Submitted via: ExactAudioCopy v1.0b3
#
DISCID=890b870a
DTITLE=Dang Duong - Khi Nang Mai Ve
DYEAR=2011
DGENRE=Country
TTITLE0=Bai ca nguoi giao vien nhan dan
TTITLE1=Nhung ngoi sao dem
TTITLE2=Dang Duong, Lan Anh - Tu mot nga tu duong pho
TTITLE3=Nhung anh sao dem
TTITLE4=Bai ca nguoi tho rung
TTITLE5=Dang Duong, Lan Anh, top nu - Bai ca giao thong van tai
TTITLE6=Duong tau mua Xuan
TTITLE7=Hat ve cay lua hom nay
TTITLE8=Khi thanh pho len den
TTITLE9=Dang Duong, top nu - Tieng goi song Da
EXTD=
EXTT0=
EXTT1=
EXTT2=
EXTT3=
EXTT4=
EXTT5=
EXTT6=
EXTT7=
EXTT8=
EXTT9=
PLAYORDER=
